<mxfile host="app.diagrams.net" agent="Mozilla/5.0 (Windows NT 10.0; Win64; x64) AppleWebKit/537.36 (KHTML, like Gecko) Chrome/138.0.0.0 Safari/537.36" version="28.0.7">
  <diagram name="Page-1" id="aInVrUp1MnNMGaIALHQe">
    <mxGraphModel dx="786" dy="531" grid="1" gridSize="10" guides="1" tooltips="1" connect="1" arrows="1" fold="1" page="1" pageScale="1" pageWidth="827" pageHeight="1169" math="0" shadow="0">
      <root>
        <mxCell id="0" />
        <mxCell id="1" parent="0" />
        <mxCell id="-jH9cvor_tWSEYjWnEKw-4" value="" style="edgeStyle=orthogonalEdgeStyle;rounded=0;orthogonalLoop=1;jettySize=auto;html=1;" edge="1" parent="1" source="-jH9cvor_tWSEYjWnEKw-2" target="-jH9cvor_tWSEYjWnEKw-3">
          <mxGeometry relative="1" as="geometry" />
        </mxCell>
        <mxCell id="-jH9cvor_tWSEYjWnEKw-6" value="" style="edgeStyle=orthogonalEdgeStyle;rounded=0;orthogonalLoop=1;jettySize=auto;html=1;" edge="1" parent="1" source="-jH9cvor_tWSEYjWnEKw-2" target="-jH9cvor_tWSEYjWnEKw-5">
          <mxGeometry relative="1" as="geometry" />
        </mxCell>
        <mxCell id="-jH9cvor_tWSEYjWnEKw-2" value="cmake --workflow&amp;lt;preset&amp;gt;" style="rounded=0;whiteSpace=wrap;html=1;fillColor=#d5e8d4;strokeColor=#82b366;" vertex="1" parent="1">
          <mxGeometry x="150" y="90" width="120" height="60" as="geometry" />
        </mxCell>
        <mxCell id="-jH9cvor_tWSEYjWnEKw-3" value="Validate JSON with the help of jq package&lt;div&gt;&lt;br&gt;&lt;/div&gt;&lt;div&gt;cat preset.json | jq&lt;/div&gt;" style="whiteSpace=wrap;html=1;fillColor=#f8cecc;strokeColor=#b85450;rounded=0;" vertex="1" parent="1">
          <mxGeometry x="151" y="190" width="120" height="60" as="geometry" />
        </mxCell>
        <mxCell id="-jH9cvor_tWSEYjWnEKw-5" value="cmake --help&lt;div&gt;List all the generators available in os&lt;/div&gt;" style="whiteSpace=wrap;html=1;fillColor=#dae8fc;strokeColor=#6c8ebf;rounded=0;" vertex="1" parent="1">
          <mxGeometry x="350" y="90" width="120" height="60" as="geometry" />
        </mxCell>
        <mxCell id="-jH9cvor_tWSEYjWnEKw-7" value="The version key in the cmake CMakePresets.json is version of the preset" style="rounded=1;whiteSpace=wrap;html=1;fillColor=#fff2cc;strokeColor=#d6b656;" vertex="1" parent="1">
          <mxGeometry x="340" y="190" width="140" height="70" as="geometry" />
        </mxCell>
      </root>
    </mxGraphModel>
  </diagram>
</mxfile>
